# xmcd CD database file
#
# Track frame offsets:
#	182
#	16137
#	33145
#	51037
#	67400
#	80827
#	98972
#	113735
#	129407
#	145442
#	161657
#	177332
#	195415
#	214832
#	234422
#	249100
#	265415
#	280592
#	297907
#	313905
#
# Disc length: 4413 seconds
#
# Revision: 2
# Processed by: cddbd v1.4PL0 Copyright (c) Steve Scherf et al.
# Submitted via: CDex 1.40Release
#
DISCID=24113b14
DTITLE=MARISELA - 20 exitos inmortales
DYEAR=1900
DGENRE=Blues
TTITLE0=La pareja ideal
TTITLE1=Sola con mi soldedad
TTITLE2=Arrepentida
TTITLE3=El chico aquel
TTITLE4=Mi problema
TTITLE5=No puedo olvidarlo
TTITLE6=Tu dama de hierro
TTITLE7=Enamorada Y Herida
TTITLE8=Sin El
TTITLE9=Quisiera detener el Tiempo
TTITLE10=Hazme Tuya
TTITLE11=No puedo Olvidarlo
TTITLE12=Asi de Facil
TTITLE13=Sienteme, Amame, Quiereme
TTITLE14=Ahora No
TTITLE15=PorQue Tengo Ganas
TTITLE16=A Escondidad
TTITLE17=Ya no te vayas
TTITLE18=A Cambio de Que
TTITLE19=Completamente Tuya
EXTD=ID3G: 0
EXTT0=
EXTT1=
EXTT2=
EXTT3=
EXTT4=
EXTT5=
EXTT6=
EXTT7=
EXTT8=
EXTT9=
EXTT10=
EXTT11=
EXTT12=
EXTT13=
EXTT14=
EXTT15=
EXTT16=
EXTT17=
EXTT18=
EXTT19=
PLAYORDER=
